<svg width="32" height="32" viewBox="0 0 32 32" fill="none" xmlns="http://www.w3.org/2000/svg">
<path d="M24.9991 16C24.9996 17.5787 24.5839 19.1296 23.7939 20.4964C23.0038 21.8632 21.8674 22.9975 20.4991 23.785V25.5H11.4991V23.785C10.1321 22.9946 8.99714 21.8582 8.20841 20.4901C7.41969 19.1221 7.00494 17.5705 7.00586 15.9914C7.00678 14.4123 7.42333 12.8612 8.21364 11.4941C9.00396 10.1269 10.1402 8.99188 11.5082 8.20301C12.8761 7.41415 14.4277 6.99925 16.0068 7C17.5859 7.00076 19.137 7.41714 20.5043 8.20732C21.8715 8.99749 23.0066 10.1336 23.7956 11.5015C24.5846 12.8694 24.9997 14.4209 24.9991 16Z" fill="#FFF300"/>
<path d="M20.5 25.5H11.5V28H20.5V25.5Z" fill="#FCB860"/>
<path d="M18.5 30.5H13.5L12.5 28H19.5L18.5 30.5Z" fill="#FCAA52"/>
<path d="M15.5 4.5V1.5C15.5 1.36739 15.5527 1.24021 15.6464 1.14645C15.7402 1.05268 15.8674 1 16 1C16.1326 1 16.2598 1.05268 16.3536 1.14645C16.4473 1.24021 16.5 1.36739 16.5 1.5V4.5C16.5 4.63261 16.4473 4.75979 16.3536 4.85355C16.2598 4.94732 16.1326 5 16 5C15.8674 5 15.7402 4.94732 15.6464 4.85355C15.5527 4.75979 15.5 4.63261 15.5 4.5ZM9.81689 6.29077C9.84971 6.34768 9.89341 6.39757 9.94551 6.43759C9.99761 6.4776 10.0571 6.50696 10.1205 6.52399C10.184 6.54101 10.2502 6.54537 10.3153 6.53681C10.3804 6.52825 10.4432 6.50694 10.5001 6.4741C10.557 6.44126 10.6069 6.39753 10.6469 6.34541C10.6869 6.29329 10.7162 6.2338 10.7332 6.17034C10.7502 6.10689 10.7545 6.0407 10.7459 5.97557C10.7373 5.91045 10.716 5.84765 10.6831 5.79077L9.18311 3.19263C9.15029 3.13571 9.10659 3.08582 9.05449 3.04581C9.00239 3.00579 8.94292 2.97643 8.87947 2.95941C8.81602 2.94238 8.74984 2.93803 8.68471 2.94659C8.61957 2.95515 8.55677 2.97646 8.49987 3.0093C8.44298 3.04214 8.39311 3.08587 8.35312 3.13799C8.31313 3.19011 8.2838 3.24959 8.26681 3.31305C8.24982 3.37651 8.2455 3.44269 8.25409 3.50782C8.26268 3.57295 8.28402 3.63575 8.31689 3.69263L9.81689 6.29077ZM3.19263 9.18311L5.79077 10.6831C5.90563 10.7493 6.04209 10.7672 6.17015 10.7329C6.2982 10.6985 6.40737 10.6147 6.47365 10.4999C6.53994 10.385 6.5579 10.2486 6.52361 10.1205C6.48932 9.99245 6.40556 9.88324 6.29077 9.81689L3.69263 8.31689C3.63575 8.28402 3.57295 8.26268 3.50782 8.25409C3.44269 8.2455 3.37651 8.24982 3.31305 8.26681C3.24959 8.2838 3.19011 8.31313 3.13799 8.35312C3.08587 8.39311 3.04214 8.44298 3.0093 8.49987C2.97646 8.55677 2.95515 8.61957 2.94659 8.68471C2.93803 8.74984 2.94238 8.81602 2.95941 8.87947C2.97643 8.94292 3.00579 9.00239 3.04581 9.05449C3.08582 9.10659 3.13571 9.15029 3.19263 9.18311ZM28.8074 22.8169L26.2092 21.3169C26.0944 21.2507 25.9579 21.2328 25.8299 21.2671C25.7018 21.3015 25.5926 21.3853 25.5263 21.5001C25.4601 21.615 25.4421 21.7514 25.4764 21.8795C25.5107 22.0076 25.5944 22.1168 25.7092 22.1831L28.3074 23.6831C28.3643 23.716 28.427 23.7373 28.4922 23.7459C28.5573 23.7545 28.6235 23.7502 28.6869 23.7332C28.7504 23.7162 28.8099 23.6869 28.862 23.6469C28.9141 23.6069 28.9579 23.557 28.9907 23.5001C29.0235 23.4432 29.0449 23.3804 29.0534 23.3153C29.062 23.2502 29.0576 23.184 29.0406 23.1205C29.0236 23.0571 28.9942 22.9976 28.9542 22.9455C28.9142 22.8934 28.8643 22.8497 28.8074 22.8169ZM5 16C5 15.8674 4.94732 15.7402 4.85355 15.6464C4.75979 15.5527 4.63261 15.5 4.5 15.5H1.5C1.36739 15.5 1.24021 15.5527 1.14645 15.6464C1.05268 15.7402 1 15.8674 1 16C1 16.1326 1.05268 16.2598 1.14645 16.3536C1.24021 16.4473 1.36739 16.5 1.5 16.5H4.5C4.63261 16.5 4.75979 16.4473 4.85355 16.3536C4.94732 16.2598 5 16.1326 5 16ZM30.5 15.5H27.5C27.3674 15.5 27.2402 15.5527 27.1464 15.6464C27.0527 15.7402 27 15.8674 27 16C27 16.1326 27.0527 16.2598 27.1464 16.3536C27.2402 16.4473 27.3674 16.5 27.5 16.5H30.5C30.6326 16.5 30.7598 16.4473 30.8536 16.3536C30.9473 16.2598 31 16.1326 31 16C31 15.8674 30.9473 15.7402 30.8536 15.6464C30.7598 15.5527 30.6326 15.5 30.5 15.5ZM5.79077 21.3169L3.19263 22.8169C3.07783 22.8832 2.99408 22.9924 2.95979 23.1205C2.92549 23.2486 2.94346 23.385 3.00974 23.4999C3.07602 23.6147 3.18519 23.6985 3.31325 23.7329C3.4413 23.7672 3.57776 23.7493 3.69263 23.6831L6.29077 22.1831C6.40556 22.1168 6.48932 22.0076 6.52361 21.8795C6.5579 21.7514 6.53994 21.615 6.47365 21.5001C6.40737 21.3853 6.2982 21.3015 6.17015 21.2671C6.04209 21.2328 5.90563 21.2507 5.79077 21.3169ZM25.9597 10.75C26.0473 10.75 26.1334 10.7269 26.2092 10.6831L28.8074 9.18311C28.9222 9.11676 29.0059 9.00755 29.0402 8.87948C29.0745 8.75141 29.0565 8.61496 28.9902 8.50013C28.924 8.3853 28.8148 8.30149 28.6867 8.26713C28.5587 8.23277 28.4222 8.25067 28.3074 8.31689L25.7092 9.81689C25.6138 9.87193 25.5392 9.95692 25.4971 10.0587C25.455 10.1604 25.4476 10.2733 25.4762 10.3796C25.5047 10.486 25.5676 10.58 25.655 10.647C25.7425 10.7139 25.8496 10.7501 25.9597 10.75ZM21.5 6.47388C21.6149 6.54012 21.7514 6.55804 21.8795 6.52371C22.0075 6.48938 22.1168 6.40559 22.1831 6.29077L23.6831 3.69263C23.716 3.63575 23.7373 3.57295 23.7459 3.50782C23.7545 3.44269 23.7502 3.37651 23.7332 3.31305C23.7162 3.24959 23.6869 3.19011 23.6469 3.13799C23.6069 3.08587 23.557 3.04214 23.5001 3.0093C23.4432 2.97646 23.3804 2.95515 23.3153 2.94659C23.2502 2.93803 23.184 2.94238 23.1205 2.95941C23.0571 2.97643 22.9976 3.00579 22.9455 3.04581C22.8934 3.08582 22.8497 3.13571 22.8169 3.19263L21.3169 5.79077C21.2506 5.90564 21.2327 6.04214 21.267 6.17024C21.3013 6.29834 21.3851 6.40756 21.5 6.47388ZM25.5 16C25.4955 17.6162 25.0802 19.2048 24.293 20.6163C23.5058 22.0279 22.3727 23.2161 21 24.0693V28C21 28.0657 20.9871 28.1307 20.962 28.1914C20.9369 28.252 20.9 28.3072 20.8536 28.3536C20.8072 28.4 20.752 28.4369 20.6914 28.462C20.6307 28.4871 20.5657 28.5 20.5 28.5H19.8386L18.9644 30.6855C18.9272 30.7783 18.8631 30.8579 18.7804 30.9139C18.6976 30.97 18.6 30.9999 18.5 31H13.5C13.4 30.9999 13.3024 30.97 13.2196 30.9139C13.1369 30.8579 13.0728 30.7783 13.0356 30.6855L12.1614 28.5H11.5C11.4343 28.5 11.3693 28.4871 11.3086 28.462C11.248 28.4369 11.1928 28.4 11.1464 28.3536C11.1 28.3072 11.0631 28.252 11.038 28.1914C11.0129 28.1307 11 28.0657 11 28V24.0693C9.59358 23.1977 8.4393 21.9737 7.6515 20.5186C6.86371 19.0636 6.46974 17.428 6.50862 15.7738C6.54751 14.1196 7.0179 12.5043 7.87319 11.0879C8.72848 9.67145 9.939 8.50306 11.3848 7.69845C12.8306 6.89384 14.4616 6.48094 16.1161 6.50065C17.7706 6.52036 19.3913 6.97199 20.8175 7.81081C22.2438 8.64962 23.4261 9.84652 24.2474 11.2829C25.0687 12.7193 25.5005 14.3454 25.5 16ZM18.7614 28.5H13.2386L13.8386 30H18.1614L18.7614 28.5ZM20 27.5V26H12V27.5H20ZM24.5 16C24.5014 14.5076 24.1098 13.0411 23.3647 11.748C22.6195 10.4549 21.547 9.38082 20.2551 8.63371C18.9631 7.88661 17.4972 7.49284 16.0048 7.492C14.5124 7.49116 13.046 7.88328 11.7532 8.62893C10.4604 9.37457 9.38672 10.4475 8.64011 11.7397C7.8935 13.032 7.50028 14.498 7.5 15.9904C7.49973 17.4829 7.8924 18.949 8.63854 20.2416C9.38468 21.5341 10.458 22.6074 11.7505 23.3535C11.8264 23.3974 11.8894 23.4605 11.9332 23.5364C11.977 23.6123 12 23.6985 12 23.7861V25H14.5V16C14.5 15.7348 14.3946 15.4804 14.2071 15.2929C14.0196 15.1054 13.7652 15 13.5 15C13.2348 15 12.9804 15.1054 12.7929 15.2929C12.6054 15.4804 12.5 15.7348 12.5 16C12.4989 16.2057 12.562 16.4066 12.6807 16.5746C12.7994 16.7426 12.9676 16.8693 13.1619 16.937C13.224 16.9583 13.2813 16.9915 13.3306 17.035C13.3799 17.0784 13.4201 17.1311 13.449 17.19C13.4779 17.249 13.4949 17.3131 13.4991 17.3786C13.5032 17.4442 13.4944 17.5099 13.4731 17.572C13.4519 17.6341 13.4186 17.6915 13.3752 17.7408C13.3318 17.79 13.2791 17.8303 13.2201 17.8592C13.1611 17.8881 13.0971 17.9051 13.0315 17.9092C12.966 17.9134 12.9003 17.9045 12.8381 17.8833C12.4924 17.7616 12.1868 17.5471 11.9547 17.2634C11.7227 16.9796 11.5732 16.6375 11.5225 16.2745C11.4718 15.9115 11.522 15.5415 11.6675 15.2051C11.813 14.8686 12.0483 14.5787 12.3475 14.367C12.6467 14.1553 12.9984 14.03 13.3641 14.0047C13.7298 13.9795 14.0953 14.0553 14.4208 14.2239C14.7463 14.3925 15.0191 14.6474 15.2095 14.9606C15.3998 15.2739 15.5003 15.6335 15.5 16V25H16.5V16C16.4993 15.633 16.5996 15.2728 16.7899 14.9589C16.9802 14.6451 17.2532 14.3897 17.5791 14.2206C17.9049 14.0516 18.2709 13.9755 18.6371 14.0007C19.0033 14.0259 19.3555 14.1513 19.6551 14.3633C19.9548 14.5753 20.1903 14.8657 20.3359 15.2026C20.4815 15.5395 20.5316 15.9101 20.4806 16.2736C20.4297 16.637 20.2797 16.9795 20.0471 17.2635C19.8145 17.5474 19.5082 17.7618 19.1619 17.8833C19.0364 17.9262 18.899 17.9176 18.7799 17.8592C18.6608 17.8008 18.5698 17.6975 18.5269 17.572C18.4839 17.4465 18.4926 17.3091 18.551 17.19C18.6094 17.071 18.7126 16.9799 18.8381 16.937C19.0324 16.8693 19.2006 16.7426 19.3193 16.5746C19.438 16.4066 19.5012 16.2057 19.5 16C19.5 15.7348 19.3946 15.4804 19.2071 15.2929C19.0196 15.1054 18.7652 15 18.5 15C18.2348 15 17.9804 15.1054 17.7929 15.2929C17.6054 15.4804 17.5 15.7348 17.5 16V25H20V23.7861C20 23.6985 20.023 23.6124 20.0668 23.5364C20.1106 23.4605 20.1736 23.3974 20.2495 23.3535C21.5386 22.6059 22.6094 21.5337 23.3552 20.2435C24.1009 18.9533 24.4957 17.4902 24.5 16Z" fill="black"/>
</svg>
