<svg width="24" height="22" viewBox="0 0 24 22" fill="none" xmlns="http://www.w3.org/2000/svg">
<path fill-rule="evenodd" clip-rule="evenodd" d="M6.01381 2.03653C5.96145 1.98841 5.89925 1.95023 5.83077 1.92418C5.76228 1.89813 5.68887 1.88472 5.61472 1.88472C5.54058 1.88472 5.46716 1.89813 5.39868 1.92418C5.3302 1.95023 5.268 1.98841 5.21564 2.03653L3.30798 3.7865C2.69323 4.34985 2.28071 5.0718 2.12558 5.85583C1.97045 6.63987 2.0801 7.44863 2.43987 8.17401C4.98763 13.3115 9.4797 17.4289 15.0844 19.7638C15.8757 20.0936 16.758 20.1941 17.6133 20.0519C18.4686 19.9097 19.2562 19.5316 19.8707 18.968L21.777 17.2193C21.9978 17.0182 21.9978 16.69 21.777 16.4876L19.2124 14.1355C19.1287 14.0586 19.0207 14.0079 18.9038 13.9906C18.7868 13.9732 18.6669 13.99 18.561 14.0387L17.1361 14.6924C16.3451 15.0548 15.4498 15.1799 14.577 15.0499C13.7042 14.9199 12.8982 14.5415 12.273 13.9683L8.76215 10.7499C8.13702 10.1767 7.72447 9.43774 7.58295 8.63766C7.44142 7.83758 7.57808 7.01696 7.97358 6.29203L8.68672 4.98584C8.73932 4.88878 8.75729 4.77901 8.73809 4.67207C8.7189 4.56513 8.6635 4.46644 8.57975 4.38994L6.01381 2.03653ZM3.76055 0.703934C4.00393 0.480764 4.29288 0.303732 4.61091 0.182949C4.92893 0.0621668 5.2698 0 5.61404 0C5.95828 0 6.29914 0.0621668 6.61717 0.182949C6.9352 0.303732 7.22415 0.480764 7.46752 0.703934L10.0348 3.05609C10.8316 3.78776 11.0305 4.90412 10.5258 5.8294L9.81266 7.13559C9.61027 7.50671 9.54043 7.92681 9.61304 8.33635C9.68566 8.74589 9.89704 9.12409 10.2172 9.41734L13.7281 12.6357C14.3836 13.2366 15.3861 13.385 16.2159 13.0053L17.6408 12.3516C18.1328 12.126 18.6897 12.0482 19.2327 12.1289C19.7757 12.2097 20.2772 12.4451 20.6661 12.8016L23.2321 15.155C23.4755 15.3781 23.6687 15.643 23.8004 15.9345C23.9322 16.2261 24 16.5385 24 16.8541C24 17.1697 23.9322 17.4821 23.8004 17.7737C23.6687 18.0652 23.4755 18.3301 23.2321 18.5532L21.3258 20.3006C20.4151 21.1358 19.248 21.6962 17.9804 21.9069C16.7129 22.1176 15.4054 21.9686 14.2328 21.4798C8.17572 18.9559 3.32123 14.5059 0.567868 8.95345C0.0346063 7.8789 -0.128213 6.68075 0.101166 5.51911C0.330545 4.35747 0.941196 3.28767 1.85152 2.45265L3.76055 0.703934Z" fill="black"/>
</svg>
