<svg width="28" height="28" viewBox="0 0 28 28" fill="none" xmlns="http://www.w3.org/2000/svg">
<g clip-path="url(#clip0_854_23)">
<path d="M24.2903 25.55H3.78031C1.75031 25.55 0.0703125 23.87 0.0703125 21.84V6.86002C0.0703125 4.83002 1.75031 3.15002 3.78031 3.15002H24.2903C26.3203 3.15002 28.0003 4.83002 28.0003 6.86002V21.77C28.0003 23.87 26.3203 25.55 24.2903 25.55ZM3.78031 4.55002C2.45031 4.55002 1.40031 5.60002 1.40031 6.86002V21.77C1.40031 23.03 2.45031 24.08 3.71031 24.08H24.2203C25.4803 24.08 26.5303 23.03 26.5303 21.77V6.86002C26.5303 5.60002 25.4803 4.55002 24.2203 4.55002H3.78031Z" fill="#010202"/>
<path d="M14.0007 16.73C12.8107 16.73 11.6907 16.17 10.8507 15.26L4.20067 7.27995C3.92067 6.99995 3.99067 6.57995 4.27067 6.29995C4.55067 6.01995 5.04067 6.08995 5.25067 6.36995L11.9707 14.42C12.4607 15.05 13.2307 15.4 14.0007 15.4C14.7707 15.4 15.5407 15.05 16.0307 14.42L22.6807 6.43995C22.9607 6.15995 23.3807 6.08995 23.6607 6.36995C23.9407 6.64995 24.0107 7.06995 23.7307 7.34995L17.0807 15.33C16.3807 16.24 15.2607 16.73 14.0007 16.73ZM24.8507 22.26C24.6407 22.26 24.4307 22.19 24.2907 21.98L19.4607 16.24C19.1807 15.96 19.2507 15.47 19.5307 15.26C19.8107 14.98 20.3007 15.05 20.5107 15.33L25.3407 21.07C25.6207 21.35 25.5507 21.84 25.2707 22.05C25.2007 22.19 24.9907 22.26 24.8507 22.26ZM3.15067 22.19C3.01067 22.19 2.80067 22.12 2.73067 22.05C2.45067 21.77 2.38067 21.35 2.66067 21.07L7.42067 15.4C7.70067 15.12 8.12067 15.05 8.40067 15.33C8.68067 15.61 8.75067 16.03 8.47067 16.31L3.71067 21.98C3.57067 22.12 3.36067 22.19 3.15067 22.19Z" fill="#010202"/>
</g>
<defs>
<clipPath id="clip0_854_23">
<rect width="28" height="28" fill="white"/>
</clipPath>
</defs>
</svg>
