<svg width="54" height="54" viewBox="0 0 54 54" fill="none" xmlns="http://www.w3.org/2000/svg">
<path d="M27.1196 3.09014C22.3738 3.06649 17.7275 4.45041 13.7681 7.06695C9.80867 9.68349 6.71388 13.4152 4.87495 17.7903C3.03601 22.1654 2.53549 26.9875 3.43665 31.647C4.33781 36.3066 6.6002 40.5943 9.93781 43.9683C13.2754 47.3422 17.5384 49.6509 22.1879 50.6025C26.8374 51.554 31.6647 51.1058 36.0594 49.3143C40.4542 47.5229 44.2192 44.4687 46.8784 40.5378C49.5377 36.607 50.9719 31.9759 50.9996 27.2301C51.018 24.0767 50.4148 20.9506 49.2245 18.0304C48.0341 15.1103 46.2799 12.4533 44.0622 10.2114C41.8445 7.96954 39.2067 6.18669 36.2996 4.96478C33.3924 3.74287 30.273 3.10586 27.1196 3.09014ZM37.9996 37.8501C37.9023 38.0157 37.7724 38.1599 37.6178 38.2738C37.4632 38.3877 37.2871 38.4692 37.1002 38.5131C36.9132 38.557 36.7193 38.5626 36.5301 38.5294C36.3409 38.4962 36.1605 38.4251 35.9996 38.3201C30.3696 34.8101 23.2896 34.0501 14.8796 35.9301C14.4977 36.0243 14.094 35.9629 13.7574 35.7594C13.4208 35.5559 13.1788 35.2271 13.0846 34.8451C12.9904 34.4632 13.0519 34.0596 13.2553 33.7229C13.4588 33.3863 13.7877 33.1443 14.1696 33.0501C23.3096 31.0501 31.2296 31.9301 37.4496 35.8001C37.6266 35.8923 37.7825 36.0203 37.9075 36.1759C38.0324 36.3315 38.1236 36.5115 38.1753 36.7042C38.2271 36.897 38.2381 37.0984 38.2079 37.2956C38.1776 37.4929 38.1067 37.6817 37.9996 37.8501ZM40.9196 31.2601C40.7938 31.4667 40.6281 31.6462 40.4322 31.788C40.2362 31.9298 40.014 32.0312 39.7784 32.0861C39.5429 32.141 39.2987 32.1484 39.0603 32.1079C38.8218 32.0674 38.5938 31.9798 38.3896 31.8501C31.9296 27.8501 22.0896 26.6001 14.5096 28.9701C14.0468 29.1107 13.5471 29.0617 13.1205 28.8338C12.6938 28.606 12.3752 28.2179 12.2346 27.7551C12.094 27.2923 12.1431 26.7927 12.3709 26.366C12.5988 25.9394 12.9868 25.6207 13.4496 25.4801C22.2296 22.8801 33.0296 24.2601 40.4496 28.8601C40.6415 28.984 40.8063 29.1455 40.934 29.3349C41.0617 29.5242 41.1497 29.7375 41.1927 29.9618C41.2357 30.1861 41.2328 30.4168 41.1841 30.64C41.1355 30.8631 41.0421 31.0741 40.9096 31.2601H40.9196ZM41.1896 24.5401C33.5296 19.9401 20.6796 19.3901 13.3496 21.6401C12.7913 21.8192 12.1848 21.7691 11.6634 21.5009C11.1421 21.2327 10.7486 20.7684 10.5696 20.2101C10.3906 19.6519 10.4407 19.0453 10.7088 18.524C10.977 18.0026 11.4413 17.6092 11.9996 17.4301C20.5396 14.9501 34.5796 15.5001 43.4396 20.8301C43.7053 20.9807 43.9387 21.1823 44.1263 21.4233C44.3139 21.6643 44.4521 21.94 44.5329 22.2345C44.6137 22.529 44.6356 22.8366 44.5973 23.1396C44.559 23.4426 44.4612 23.735 44.3096 24.0001C43.928 24.4341 43.4093 24.7243 42.8399 24.8225C42.2705 24.9208 41.6845 24.8211 41.1796 24.5401H41.1896Z" fill="#1EC85A"/>
</svg>
