<svg width="26" height="26" viewBox="0 0 26 26" fill="none" xmlns="http://www.w3.org/2000/svg">
<g clip-path="url(#clip0_854_19)">
<path fill-rule="evenodd" clip-rule="evenodd" d="M12.9962 0C5.82997 0 1.47843e-05 5.83104 1.47843e-05 13C-0.00412877 15.7382 0.862804 18.4067 2.47543 20.6196L0.855848 25.4497L5.85218 23.8528C7.97218 25.2581 10.4604 26.0051 13.0038 26C20.1701 26 26 20.1684 26 13C26 5.83158 20.1706 0 13.0038 0H12.9962ZM9.36706 6.60292C9.11464 5.9995 8.92397 5.97675 8.5421 5.96104C8.39711 5.95186 8.25188 5.94698 8.1066 5.94642C7.60935 5.94642 7.08989 6.09158 6.77681 6.41225C6.39493 6.80225 5.44756 7.71117 5.44756 9.57613C5.44756 11.4411 6.80714 13.2448 6.99076 13.4973C7.18197 13.7491 9.64222 17.6313 13.4621 19.2135C16.4493 20.4517 17.3361 20.3369 18.0158 20.1917C19.0093 19.9778 20.2546 19.2438 20.5676 18.3576C20.8813 17.4709 20.8813 16.7142 20.7897 16.5539C20.6976 16.3935 20.4452 16.302 20.0639 16.1108C19.6815 15.9196 17.8246 15.0025 17.4731 14.8801C17.1297 14.7501 16.8014 14.7962 16.5414 15.1629C16.1747 15.6753 15.8156 16.1948 15.5253 16.5078C15.2961 16.7527 14.9213 16.7835 14.6082 16.653C14.1879 16.4775 13.0114 16.0648 11.5597 14.7734C10.4363 13.7719 9.67256 12.5266 9.45101 12.1518C9.22893 11.7699 9.42826 11.5483 9.60376 11.342C9.79497 11.1047 9.97806 10.9368 10.1693 10.7153C10.3599 10.4932 10.4672 10.3789 10.5896 10.1194C10.7196 9.867 10.6275 9.607 10.5354 9.41525C10.4444 9.22458 9.68014 7.35963 9.36706 6.60346V6.60292Z" fill="#67C15E"/>
</g>
<defs>
<clipPath id="clip0_854_19">
<rect width="26" height="26" fill="white"/>
</clipPath>
</defs>
</svg>
